<svg width="480" height="480" viewBox="0 0 480 480" fill="none" xmlns="http://www.w3.org/2000/svg">
<path d="M360 0H120C53.726 0 0 53.726 0 120V360C0 426.274 53.726 480 120 480H360C426.274 480 480 426.274 480 360V120C480 53.726 426.274 0 360 0ZM295.559 400.564C287.045 402.221 284.027 396.979 284.027 392.477C284.027 386.962 284.235 368.813 284.235 346.301C284.235 330.6 278.868 320.336 272.848 315.134C310.222 310.966 349.444 296.734 349.444 232.077C349.444 213.693 342.962 198.668 332.204 186.887C333.924 182.636 339.671 165.532 330.525 142.351C330.525 142.351 316.453 137.825 284.422 159.601C271.018 155.847 256.653 154.006 242.412 153.921C228.129 153.984 213.782 155.847 200.398 159.578C168.354 137.805 154.258 142.327 154.258 142.327C145.134 165.488 150.88 182.612 152.619 186.867C141.884 198.647 135.337 213.674 135.337 232.055C135.337 296.543 174.519 310.985 211.771 315.243C206.964 319.456 202.624 326.873 201.114 337.749C191.551 342.065 167.239 349.487 152.263 323.771C152.263 323.771 143.413 307.612 126.572 306.418C126.572 306.418 110.19 306.207 125.437 316.645C125.437 316.645 136.451 321.819 144.066 341.271C144.066 341.271 153.922 374.009 200.588 363.841C200.676 377.887 200.82 388.471 200.82 392.476C200.82 396.942 197.757 402.138 189.368 400.582C122.671 378.305 74.597 315.219 74.597 240.857C74.597 147.881 149.725 72.514 242.368 72.514C335.056 72.514 410.184 147.881 410.184 240.857C410.186 315.201 362.153 378.262 295.559 400.564Z" fill="#2A323E"/>
</svg>
